<svg xmlns="http://www.w3.org/2000/svg" xml:space="preserve" width="512" height="512"
     style="enable-background:new 0 0 512 512"><path d="M122.602 221.795v39.491c0 6.006-3.917 11.31-9.659 13.077l-59.957 18.448a27.365 27.365 0 0 0-19.316 26.154v99.507c0 18.891 15.314 34.205 34.205 34.205H264.551V221.795H122.602z" style="fill:#d29b6e"/>
    <path d="M170.489 324.409c-33.108 0-62.297-17.379-79.072-43.422l-38.43 11.825a27.363 27.363 0 0 0-19.316 26.153v99.507c0 18.891 15.314 34.205 34.205 34.205H264.552v-222.33c-.001 51.734-42.329 94.062-94.063 94.062z"
          style="fill:#f88448"/>
    <path d="M264.551 230.347c0 51.734-42.328 94.063-94.063 94.063-33.108 0-62.297-17.379-79.072-43.422l-16.936 5.211c19.268 33.045 54.998 55.313 96.008 55.313 39.669 0 74.39-20.843 94.063-52.111v-59.054zM179.04 409.921H93.528a8.552 8.552 0 0 1-8.551-8.551v-51.307L38.484 303.57c-3.03 4.438-4.814 9.745-4.814 15.395v99.507c0 18.891 15.314 34.205 34.205 34.205H204.693v-17.102c0-14.169-11.485-25.654-25.653-25.654z"
          style="fill:#f88448"/>
    <path d="M247.449 161.937h-5.544l-3.007-59.858H102.079l-3.01 59.858h-5.541c-7.084 0-12.827 5.743-12.827 12.827v17.102c0 7.084 5.743 12.827 12.827 12.827h12.382l1.39 8.683a27.368 27.368 0 0 0 9.502 16.698l27.457 22.881a20.525 20.525 0 0 0 13.139 4.757h26.183c4.8 0 9.45-1.684 13.139-4.757l27.457-22.881a27.358 27.358 0 0 0 9.502-16.698l1.39-8.683h12.381c7.084 0 12.827-5.743 12.827-12.827v-17.102c-.001-7.083-5.745-12.827-12.828-12.827z"
          style="fill:#f0c087"/>
    <path d="M256.518 165.695a12.794 12.794 0 0 0-9.07-3.757h-5.545l-3.007-59.858H102.078l-3.01 59.858h-5.54c-7.084 0-12.827 5.743-12.827 12.827v17.102c0 7.084 5.743 12.827 12.827 12.827h12.382l1.39 8.683a27.365 27.365 0 0 0 9.502 16.698l27.456 22.88a20.523 20.523 0 0 0 13.139 4.758h10.811l-11.749-35.247a59.881 59.881 0 0 1-3.073-18.933v-46.375c0-4.545 3.57-8.106 8.096-8.524 4.31-.399 8.53-1.421 12.43-3.166 10.564 4.731 23.557 4.744 34.138.029l2.38 14.25c2.271 13.603 14.042 23.57 27.833 23.57h15.173c2.399 0 4.665-.546 6.839-1.325v-7.226a12.782 12.782 0 0 0-3.757-9.071z"
          style="fill:#e6af78"/>
    <path d="M273.102 100.369c0-9.475-6.456-17.371-15.185-19.732.949-2.362 1.503-4.929 1.503-7.632 0-11.335-9.188-20.523-20.523-20.523-.418 0-.807.098-1.219.123-2.793-8.017-10.336-13.805-19.304-13.805-2.203 0-4.292.41-6.267 1.076-4.38-4.829-10.643-7.917-17.676-7.917-1.814 0-3.564.241-5.262.622-4.896-4.596-11.436-7.463-18.681-7.463-7.245 0-13.786 2.867-18.681 7.463-1.698-.382-3.449-.622-5.262-.622-6.528 0-12.432 2.628-16.752 6.866-.119-.002-.231-.025-.351-.025-8.968 0-16.511 5.789-19.304 13.805-.412-.025-.802-.123-1.219-.123-11.335 0-20.523 9.188-20.523 20.523 0 2.702.554 5.269 1.502 7.632-8.728 2.361-15.184 10.257-15.184 19.732 0 5.28 2.05 10.044 5.326 13.682-3.276 3.636-5.326 8.402-5.326 13.682 0 7.596 4.176 14.136 10.318 17.667.305 9.178 7.793 16.538 17.046 16.538h7.476a6.843 6.843 0 0 0 6.748-5.716l4.774-28.642c.513.038 1.003.154 1.525.154 7.148 0 13.427-3.662 17.102-9.204 3.675 5.542 9.955 9.204 17.102 9.204s13.427-3.662 17.102-9.204c3.675 5.542 9.955 9.204 17.102 9.204s13.427-3.662 17.102-9.204c3.675 5.542 9.955 9.204 17.102 9.204.522 0 1.012-.115 1.525-.154l4.774 28.642a6.84 6.84 0 0 0 6.748 5.716h9.186c9.445 0 17.102-7.658 17.102-17.102 0-.177-.047-.342-.052-.518 5.192-3.703 8.604-9.715 8.604-16.584 0-5.28-2.05-10.045-5.326-13.682 3.278-3.639 5.328-8.403 5.328-13.683z"
          style="fill:#694b4b"/>
    <path d="M165.481 112.832c-8.017-2.793-13.805-10.336-13.805-19.304 0-5.28 2.05-10.045 5.326-13.682-3.276-3.636-5.326-8.402-5.326-13.682 0-9.475 6.456-17.371 15.185-19.732-.949-2.362-1.502-4.929-1.502-7.632 0-5.272 2.045-10.029 5.311-13.664-.062 0-.119-.018-.181-.018-7.245 0-13.786 2.867-18.681 7.463-1.698-.382-3.449-.622-5.262-.622-6.528 0-12.432 2.628-16.752 6.866-.119-.002-.231-.025-.351-.025-8.968 0-16.511 5.789-19.304 13.805-.412-.025-.802-.123-1.219-.123-11.335 0-20.523 9.188-20.523 20.523 0 2.702.554 5.269 1.502 7.632-8.729 2.361-15.185 10.257-15.185 19.732 0 5.28 2.05 10.044 5.326 13.682-3.276 3.636-5.326 8.402-5.326 13.682 0 7.596 4.176 14.136 10.318 17.667.305 9.178 7.793 16.538 17.046 16.538h7.476a6.843 6.843 0 0 0 6.748-5.716l4.774-28.642c.513.038 1.003.154 1.525.154 7.148 0 13.427-3.662 17.102-9.204 3.675 5.542 9.955 9.204 17.102 9.204 4.72 0 8.977-1.706 12.441-4.388-2.343-2.44-3.89-5.637-3.89-9.294.002-.419.087-.812.125-1.22z"
          style="fill:#5a4146"/>
    <path d="M153.386 409.921h25.653c14.168 0 25.653 11.485 25.653 25.653v17.102h-51.307v-42.755z"
          style="fill:#e6af78"/>
    <path d="M264.551 230.347c0 51.734-42.328 94.063-94.063 94.063-33.108 0-62.297-17.379-79.072-43.422l-25.315 7.789c20.527 36.521 59.595 61.286 104.387 61.286 38.158 0 72.126-18.01 94.063-45.906v-73.81z"
          style="fill:#f88448"/>
    <path d="M478.33 392.818H221.795c-14.168 0-25.653-11.485-25.653-25.653V213.244c0-14.168 11.485-25.653 25.653-25.653H478.33c14.168 0 25.653 11.485 25.653 25.653v153.921c0 14.168-11.485 25.653-25.653 25.653z"
          style="fill:#d5dced"/>
    <path d="M401.37 452.676 386.246 339.25c-1.133-8.497-8.38-14.842-16.953-14.842h-38.462c-8.571 0-15.82 6.345-16.953 14.842l-15.123 113.426H401.37z"
          style="fill:#afb9d2"/>
    <circle cx="350.063" cy="273.102" r="17.102" style="fill:#fff"/>
    <path d="M495.432 486.881H16.568a8.552 8.552 0 0 1-8.551-8.551v-17.102a8.552 8.552 0 0 1 8.551-8.551h478.864a8.552 8.552 0 0 1 8.551 8.551v17.102a8.551 8.551 0 0 1-8.551 8.551z"
          class="active-path" style="fill:#fcc5a9"/>
    <path d="M478.33 400.835c18.566 0 33.67-15.105 33.67-33.67V213.244c0-18.566-15.105-33.67-33.67-33.67H267.437v-3.955c0-5.193-1.837-9.961-4.89-13.7a21.636 21.636 0 0 0 4.521-9.69c8.581-5.059 14.051-14.325 14.051-24.497 0-4.804-1.237-9.499-3.555-13.682a28.217 28.217 0 0 0 3.555-13.682c0-10.13-5.427-19.314-13.842-24.376.107-.992.16-1.988.16-2.988 0-14.409-10.734-26.359-24.626-28.272-5.072-8.523-14.305-13.949-24.437-13.949-1.301 0-2.615.1-3.931.3-5.659-4.582-12.728-7.141-20.012-7.141-.973 0-1.948.049-2.936.148-6.084-4.531-13.407-6.988-21.006-6.988s-14.922 2.457-21.007 6.988a29.709 29.709 0 0 0-2.936-.148 31.704 31.704 0 0 0-19.908 6.981c-9.011.899-17.031 6.08-21.63 13.81-13.892 1.912-24.626 13.862-24.626 28.271 0 .999.053 1.996.16 2.988C72.128 81.054 66.7 90.238 66.7 100.368c0 4.805 1.237 9.499 3.555 13.682a28.209 28.209 0 0 0-3.555 13.682c0 10.172 5.47 19.438 14.052 24.497a21.493 21.493 0 0 0 1.946 5.714c-5.532 3.937-9.157 10.384-9.157 17.675V189.3c0 11.964 9.733 21.699 21.699 21.699h3.563l.583 3.642a35.375 35.375 0 0 0 12.286 21.591l2.916 2.43v22.625a5.636 5.636 0 0 1-4 5.414l-59.96 18.449c-14.938 4.597-24.975 18.186-24.975 33.816v99.507c0 9.887 3.426 18.985 9.14 26.188H16.568C7.432 444.66 0 452.092 0 461.228v17.102c0 9.136 7.432 16.568 16.568 16.568h478.864c9.136 0 16.568-7.432 16.568-16.568v-17.102c0-9.136-7.432-16.568-16.568-16.568h-87.044l-5.844-43.825h75.786zm17.637-187.591v153.921c0 9.725-7.912 17.637-17.637 17.637h-76.96c-.324 0-.64.025-.955.062l-6.223-46.672c-1.657-12.427-12.361-21.799-24.898-21.799h-38.462c-12.537 0-23.242 9.372-24.899 21.799l-6.223 46.672a8.119 8.119 0 0 0-.955-.062h-76.96c-9.725 0-17.637-7.912-17.637-17.637V213.244c0-9.725 7.912-17.637 17.637-17.637H478.33c9.725.001 17.637 7.912 17.637 17.637zM272.541 444.66c.012-.177.027-.354.027-.534v-43.29h25.012l-5.844 43.825h-19.195zm-25.337-265.086 1.41-8.809c1.662.989 2.79 2.783 2.79 4.854v3.955h-4.2zM85.998 108.685c-1.49-1.654-3.265-4.439-3.265-8.316 0-5.586 3.808-10.518 9.262-11.994a8.015 8.015 0 0 0 5.345-10.726c-.615-1.527-.926-3.09-.926-4.643 0-6.798 5.452-12.347 12.214-12.503.341.046.684.084 1.033.105a8.018 8.018 0 0 0 8.048-5.365c1.727-4.958 6.317-8.314 11.475-8.423a8.033 8.033 0 0 0 6.223-2.273c3.006-2.948 6.962-4.572 11.138-4.572 1.081 0 2.227.14 3.503.426a8.02 8.02 0 0 0 7.247-1.976c3.635-3.411 8.32-5.29 13.194-5.29 4.874 0 9.559 1.879 13.193 5.291a8.016 8.016 0 0 0 7.247 1.976c1.276-.288 2.422-.426 3.503-.426 4.477 0 8.646 1.878 11.739 5.287a8.018 8.018 0 0 0 8.499 2.21c1.31-.441 2.523-.656 3.706-.656 5.262 0 9.978 3.386 11.734 8.425a8.011 8.011 0 0 0 8.048 5.365c.327-.019.649-.055 1.031-.105 6.762.155 12.215 5.705 12.215 12.503 0 1.553-.311 3.116-.925 4.642a8.014 8.014 0 0 0 5.346 10.727c5.452 1.476 9.261 6.408 9.261 11.994 0 3.877-1.777 6.662-3.265 8.316a8.018 8.018 0 0 0 0 10.732c1.49 1.654 3.265 4.439 3.265 8.316 0 5.262-3.386 9.978-8.426 11.733a8.018 8.018 0 0 0-5.346 8.296c.022.246.052.49.086.733-.106 2.434-1.81 4.545-4.217 5.185-.257.068-7.924.241-7.924.241l-4.61-27.66a8.022 8.022 0 0 0-8.506-6.676c-.372.028-.736.073-1.102.123l-.047.006c-4.108-.073-7.908-2.16-10.199-5.616a8.02 8.02 0 0 0-13.362-.001c-2.333 3.518-6.228 5.618-10.422 5.618-4.193 0-8.088-2.1-10.422-5.618a8.02 8.02 0 0 0-13.362-.001c-2.333 3.518-6.228 5.618-10.422 5.618-4.193 0-8.088-2.1-10.422-5.618a8.02 8.02 0 0 0-13.362-.001c-2.292 3.456-6.092 5.543-10.199 5.616l-.047-.006c-.365-.05-.731-.095-1.103-.123-4.125-.315-7.823 2.586-8.505 6.676l-4.609 27.663s-7.666-.172-7.923-.241c-2.408-.64-4.113-2.753-4.217-5.187.032-.243.062-.485.084-.731a8.018 8.018 0 0 0-5.346-8.296c-5.04-1.756-8.426-6.471-8.426-11.733 0-3.877 1.777-6.662 3.265-8.316a8.014 8.014 0 0 0 .003-10.731zm9.24 86.281a5.672 5.672 0 0 1-5.665-5.665v-13.682c0-2.07 1.128-3.865 2.79-4.854l3.873 24.201h-.998zm13.232-25.012h1.085a14.815 14.815 0 0 0 14.656-12.415l3.714-22.289a28.4 28.4 0 0 0 11.779-5.2 28.436 28.436 0 0 0 17.102 5.699 28.445 28.445 0 0 0 17.102-5.699 28.436 28.436 0 0 0 17.102 5.699 28.445 28.445 0 0 0 17.102-5.699 28.407 28.407 0 0 0 11.779 5.2l3.714 22.29a14.8 14.8 0 0 0 9.074 11.324l-1.713 10.71h-9.172c-18.566 0-33.67 15.105-33.67 33.67v35.58a12.52 12.52 0 0 1-4.544.869h-26.185c-2.92 0-5.763-1.029-8.006-2.899l-27.457-22.881a19.341 19.341 0 0 1-6.718-11.806l-6.744-42.153zm6.832 112.072c9.163-2.819 15.318-11.154 15.318-20.739v-9.264l8.506 7.089a28.591 28.591 0 0 0 18.271 6.615h26.185c1.525 0 3.045-.13 4.544-.374v51.584a88.595 88.595 0 0 1-14.286 1.166c-26.743 0-51.963-12.236-68.568-32.99l10.03-3.087zM41.687 418.472v-99.507c0-8.547 5.489-15.978 13.657-18.492l33.647-10.352c19.455 27.569 51.127 44.014 84.849 44.014 4.789 0 9.564-.337 14.286-.988v34.018c0 18.566 15.105 33.67 33.67 33.67h34.739v43.29c0 .181.015.357.027.534H212.71v-9.086c0-18.566-15.105-33.67-33.67-33.67H93.528a.534.534 0 0 1-.534-.534v-51.307a8.017 8.017 0 0 0-16.034 0v51.307c0 9.136 7.432 16.568 16.568 16.568h51.841v26.722H67.875c-14.44.001-26.188-11.748-26.188-26.187zm119.716 26.188v-26.722h17.637c9.725 0 17.637 7.912 17.637 17.637v9.086h-35.274zm334.564 16.568v17.102a.534.534 0 0 1-.534.534H16.568a.534.534 0 0 1-.534-.534v-17.102c0-.295.239-.534.534-.534h478.864a.534.534 0 0 1 .535.534zM307.912 444.66l13.913-104.349c.6-4.496 4.471-7.885 9.007-7.885h38.462c4.535 0 8.407 3.389 9.007 7.885l13.914 104.349h-84.303z"/>
    <path d="M350.063 298.221c13.851 0 25.119-11.268 25.119-25.119s-11.268-25.119-25.119-25.119c-13.851 0-25.119 11.268-25.119 25.119 0 13.851 11.268 25.119 25.119 25.119zm0-34.204c5.01 0 9.086 4.076 9.086 9.086 0 5.01-4.076 9.086-9.086 9.086-5.01 0-9.086-4.076-9.086-9.086s4.076-9.086 9.086-9.086z"/></svg>