<svg style="display:none" xmlns="http://www.w3.org/2000/svg">

    <!-- logo-svg -->
    <symbol id="logo-svg" width="170" height="24" viewBox="0 0 170 24" fill="none"
            xmlns="http://www.w3.org/2000/svg">
        <path
                d="M153.521 20.6067V3.39355H161.808C163.415 3.39355 164.8 3.65585 165.964 4.18044C167.144 4.70503 168.054 5.45913 168.694 6.44274C169.333 7.40995 169.653 8.55749 169.653 9.88536C169.653 11.2132 169.333 12.3608 168.694 13.328C168.054 14.2952 167.144 15.0493 165.964 15.5903C164.8 16.1149 163.415 16.3772 161.808 16.3772H156.743L159.325 13.8936V20.6067H153.521ZM159.325 14.5329L156.743 11.9018H161.44C162.243 11.9018 162.833 11.7214 163.21 11.3608C163.603 11.0001 163.8 10.5083 163.8 9.88536C163.8 9.26241 163.603 8.7706 163.21 8.40995C162.833 8.04929 162.243 7.86897 161.44 7.86897H156.743L159.325 5.23782V14.5329Z"
                fill="#5C89CE"/>
        <path
                d="M135.486 20.6067V3.39355H143.773C145.38 3.39355 146.765 3.65585 147.929 4.18044C149.109 4.70503 150.019 5.45913 150.658 6.44274C151.298 7.40995 151.617 8.55749 151.617 9.88536C151.617 11.2132 151.298 12.3608 150.658 13.328C150.019 14.2952 149.109 15.0493 147.929 15.5903C146.765 16.1149 145.38 16.3772 143.773 16.3772H138.708L141.29 13.8936V20.6067H135.486ZM141.29 14.5329L138.708 11.9018H143.404C144.208 11.9018 144.798 11.7214 145.175 11.3608C145.568 11.0001 145.765 10.5083 145.765 9.88536C145.765 9.26241 145.568 8.7706 145.175 8.40995C144.798 8.04929 144.208 7.86897 143.404 7.86897H138.708L141.29 5.23782V14.5329Z"
                fill="#5C89CE"/>
        <path
                d="M113.804 20.6067L121.329 3.39355H127.034L134.558 20.6067H128.558L123.001 6.14765H125.263L119.706 20.6067H113.804ZM118.28 17.6067L119.755 13.4263H127.673L129.148 17.6067H118.28Z"
                fill="#5C89CE"/>
        <path
                d="M89.9766 20.6067V3.39355H98.2634C99.87 3.39355 101.255 3.65585 102.419 4.18044C103.6 4.70503 104.509 5.45913 105.149 6.44274C105.788 7.40995 106.108 8.55749 106.108 9.88536C106.108 11.2132 105.788 12.3608 105.149 13.328C104.509 14.2788 103.6 15.0083 102.419 15.5165C101.255 16.0247 99.87 16.2788 98.2634 16.2788H93.1979L95.7798 13.8936V20.6067H89.9766ZM100.28 20.6067L96.0503 14.3362H102.198L106.477 20.6067H100.28ZM95.7798 14.5329L93.1979 11.9018H97.8946C98.6979 11.9018 99.288 11.7214 99.6651 11.3608C100.059 11.0001 100.255 10.5083 100.255 9.88536C100.255 9.26241 100.059 8.7706 99.6651 8.40995C99.288 8.04929 98.6979 7.86897 97.8946 7.86897H93.1979L95.7798 5.23782V14.5329Z"
                fill="#202020"/>
        <path
                d="M78.7421 9.787H86.4143V13.9673H78.7421V9.787ZM79.1356 16.2296H87.7421V20.6067H73.4307V3.39355H87.4225V7.7706H79.1356V16.2296Z"
                fill="#202020"/>
        <path
                d="M62.1953 9.787H69.8674V13.9673H62.1953V9.787ZM62.5887 16.2296H71.1953V20.6067H56.8838V3.39355H70.8756V7.7706H62.5887V16.2296Z"
                fill="#202020"/>
        <path
                d="M38.5596 20.6067V3.39355H46.8465C48.453 3.39355 49.8383 3.65585 51.0022 4.18044C52.1825 4.70503 53.0924 5.45913 53.7317 6.44274C54.371 7.40995 54.6907 8.55749 54.6907 9.88536C54.6907 11.2132 54.371 12.3608 53.7317 13.328C53.0924 14.2788 52.1825 15.0083 51.0022 15.5165C49.8383 16.0247 48.453 16.2788 46.8465 16.2788H41.7809L44.3629 13.8936V20.6067H38.5596ZM48.8629 20.6067L44.6333 14.3362H50.7809L55.0596 20.6067H48.8629ZM44.3629 14.5329L41.7809 11.9018H46.4776C47.2809 11.9018 47.871 11.7214 48.2481 11.3608C48.6415 11.0001 48.8383 10.5083 48.8383 9.88536C48.8383 9.26241 48.6415 8.7706 48.2481 8.40995C47.871 8.04929 47.2809 7.86897 46.4776 7.86897H41.7809L44.3629 5.23782V14.5329Z"
                fill="#202020"/>
        <path
                d="M16.8799 20.6067L24.4045 3.39355H30.1094L37.634 20.6067H31.634L26.0766 6.14765H28.3389L22.7815 20.6067H16.8799ZM21.3553 17.6067L22.8307 13.4263H30.7487L32.2241 17.6067H21.3553Z"
                fill="#202020"/>
        <path
                d="M9.59017 21C8.21312 21 6.93443 20.7869 5.7541 20.3607C4.59016 19.918 3.57377 19.2951 2.70492 18.4918C1.85246 17.6885 1.18852 16.7377 0.713115 15.6393C0.237705 14.541 0 13.3279 0 12C0 10.6721 0.237705 9.45902 0.713115 8.36066C1.18852 7.26229 1.85246 6.31148 2.70492 5.5082C3.57377 4.70492 4.59016 4.09016 5.7541 3.66393C6.93443 3.22131 8.21312 3 9.59017 3C11.2787 3 12.7705 3.29508 14.0656 3.88525C15.3771 4.47541 16.459 5.32787 17.3115 6.44262L13.6475 9.71311C13.1393 9.07377 12.5738 8.58197 11.9508 8.23771C11.3443 7.87705 10.6557 7.69672 9.88525 7.69672C9.27869 7.69672 8.72951 7.79508 8.23771 7.9918C7.7459 8.18852 7.31967 8.47541 6.95902 8.85246C6.61475 9.22951 6.34426 9.68852 6.14754 10.2295C5.95082 10.7541 5.85246 11.3443 5.85246 12C5.85246 12.6557 5.95082 13.2541 6.14754 13.7951C6.34426 14.3197 6.61475 14.7705 6.95902 15.1475C7.31967 15.5246 7.7459 15.8115 8.23771 16.0082C8.72951 16.2049 9.27869 16.3033 9.88525 16.3033C10.6557 16.3033 11.3443 16.1311 11.9508 15.7869C12.5738 15.4262 13.1393 14.9262 13.6475 14.2869L17.3115 17.5574C16.459 18.6557 15.3771 19.5082 14.0656 20.1148C12.7705 20.7049 11.2787 21 9.59017 21Z"
                fill="#202020"/>
    </symbol>

    <!-- location-svg -->
    <symbol id="location-svg" width="16" height="16" viewBox="0 0 16 16" fill="none"
            xmlns="http://www.w3.org/2000/svg">
        <path
                d="M8.87557e-05 5.98934C-0.0021161 6.12448 0.0368048 6.25708 0.111691 6.36959C0.186577 6.48209 0.293891 6.56918 0.419404 6.6193L6.8198 9.1798L9.38035 15.5807C9.42982 15.7045 9.51527 15.8106 9.62566 15.8854C9.73606 15.9601 9.86634 16 9.99966 16H10.0103C10.1453 15.9979 10.2765 15.9548 10.3865 15.8765C10.4965 15.7981 10.5801 15.6883 10.6263 15.5614L15.9594 0.89569C16.0031 0.776382 16.0117 0.647083 15.9843 0.523022C15.957 0.39896 15.8947 0.285302 15.8049 0.195433C15.7151 0.105564 15.6015 0.0432268 15.4775 0.0157628C15.3534 -0.0117012 15.2241 -0.00314809 15.1048 0.0404146L0.438737 5.37339C0.311786 5.41967 0.201878 5.5034 0.123552 5.61351C0.0452263 5.72362 0.00217346 5.85491 8.87557e-05 5.99001V5.98934Z"
                fill="#5C89CE"/>
    </symbol>

    <!-- briefcase -->
    <symbol id="briefcase-svg" width="16" height="16" viewBox="0 0 16 16" fill="none"
            xmlns="http://www.w3.org/2000/svg">
        <path
                d="M5.75 1.5H10.25C10.3875 1.5 10.5 1.6125 10.5 1.75V3H5.5V1.75C5.5 1.6125 5.6125 1.5 5.75 1.5ZM4 1.75V3H2C0.896875 3 0 3.89687 0 5V8H6H10H16V5C16 3.89687 15.1031 3 14 3H12V1.75C12 0.784375 11.2156 0 10.25 0H5.75C4.78438 0 4 0.784375 4 1.75ZM16 9H10V10C10 10.5531 9.55313 11 9 11H7C6.44688 11 6 10.5531 6 10V9H0V13C0 14.1031 0.896875 15 2 15H14C15.1031 15 16 14.1031 16 13V9Z"
                fill="#5C89CE"/>
    </symbol>

    <!-- filter-solid -->
    <symbol id="filter-solid-svg" width="16" height="16" viewBox="0 0 16 16" fill="none"
            xmlns="http://www.w3.org/2000/svg">
        <path
                d="M0.121712 1.71562C0.327962 1.27813 0.765462 1 1.24984 1H14.7498C15.2342 1 15.6717 1.27813 15.878 1.71562C16.0842 2.15312 16.0217 2.66875 15.7155 3.04375L9.99984 10.0281V14C9.99984 14.3781 9.78734 14.725 9.44671 14.8937C9.10609 15.0625 8.70296 15.0281 8.39984 14.8L6.39984 13.3C6.14671 13.1125 5.99984 12.8156 5.99984 12.5V10.0281L0.281087 3.04062C-0.0220383 2.66875 -0.0876633 2.15 0.121712 1.71562Z"
                fill="#5C89CE"/>
    </symbol>

    <!-- chevron-down-svg -->
    <symbol id="chevron-down-svg" width="12" height="12" viewBox="0 0 12 12" fill="currentColor"
            xmlns="http://www.w3.org/2000/svg">
        <path
                d="M9.52949 6.52988C9.82246 6.23691 9.82246 5.76113 9.52949 5.46816L5.02949 0.968163C4.73652 0.675195 4.26074 0.675195 3.96777 0.968163C3.6748 1.26113 3.6748 1.73691 3.96777 2.02988L7.93809 6.0002L3.97012 9.97051C3.67715 10.2635 3.67715 10.7393 3.97012 11.0322C4.26309 11.3252 4.73887 11.3252 5.03184 11.0322L9.53184 6.53223L9.52949 6.52988Z"
                fill="currentColor"/>
    </symbol>

    <!-- chevron-left-svg -->
    <symbol id="chevron-left-svg" width="16" height="16" viewBox="0 0 16 16" fill="currentColor">
        <path d="M4.29248 8.37358C3.90186 7.98296 3.90186 7.34858 4.29248 6.95796L10.2925 0.957958C10.6831 0.567333 11.3175 0.567333 11.7081 0.957958C12.0987 1.34858 12.0987 1.98296 11.7081 2.37358L6.41436 7.66733L11.705 12.9611C12.0956 13.3517 12.0956 13.9861 11.705 14.3767C11.3144 14.7673 10.68 14.7673 10.2894 14.3767L4.28936 8.37671L4.29248 8.37358Z" fill="currentColor"/>
    </symbol>


    <!-- experience-svg -->
    <symbol id="experience-svg" viewBox="0 0 12 12" fill="none"
            xmlns="http://www.w3.org/2000/svg">
        <path
                d="M11.9683 4.30801C11.9306 4.19694 11.8612 4.09935 11.7686 4.02728C11.6761 3.95521 11.5644 3.91182 11.4475 3.90246L8.02686 3.6307L6.54665 0.354534C6.49951 0.249015 6.42284 0.159392 6.32588 0.0964823C6.22892 0.0335723 6.11583 6.3519e-05 6.00025 9.02152e-08C5.88466 -6.33385e-05 5.77153 0.0333213 5.6745 0.0961249C5.57748 0.158928 5.5007 0.248467 5.45345 0.353934L3.97324 3.6307L0.552619 3.90246C0.437692 3.91157 0.32782 3.95358 0.23615 4.02349C0.14448 4.09339 0.074892 4.18822 0.0357119 4.29663C-0.00346825 4.40504 -0.0105816 4.52244 0.0152228 4.63479C0.0410272 4.74714 0.0986568 4.84967 0.181217 4.93013L2.70903 7.394L1.81503 11.2647C1.78788 11.3819 1.79658 11.5045 1.84 11.6166C1.88342 11.7288 1.95955 11.8253 2.05851 11.8937C2.15747 11.962 2.2747 11.9991 2.39498 12C2.51526 12.0009 2.63304 11.9656 2.73303 11.8988L6.00005 9.72109L9.26707 11.8988C9.36927 11.9667 9.4898 12.0016 9.61245 11.9989C9.7351 11.9962 9.85398 11.956 9.95311 11.8838C10.0522 11.8115 10.1269 11.7106 10.1669 11.5947C10.207 11.4788 10.2106 11.3533 10.1773 11.2353L9.07987 7.3958L11.8015 4.94692C11.9797 4.78615 12.0451 4.53538 11.9683 4.30801Z"
                fill="#5C89CE"/>
    </symbol>

    <!-- eye-slash-solid-svg -->
    <symbol id="eye-slash-solid-svg" width="16" height="16" viewBox="0 0 16 16" fill="none"
            xmlns="http://www.w3.org/2000/svg">
        <path d="M1.00098 3.3999L15.001 12.3999" stroke="currentColor" stroke-width="2"
              stroke-linecap="round"/>
        <path fill-rule="evenodd" clip-rule="evenodd"
              d="M2.88385 4.02844C4.16948 2.90662 5.88656 2 8.00028 2C10.2447 2 12.0419 3.02222 13.3503 4.23889C14.6503 5.44444 15.5197 6.88889 15.9336 7.88056C16.0253 8.1 16.0253 8.34444 15.9336 8.56389C15.6225 9.30922 15.0541 10.3087 14.239 11.2723L11.7287 9.67094C11.9065 9.21336 12.0003 8.72263 12.0003 8.22222C12.0003 7.16136 11.5789 6.14394 10.8287 5.3938C10.0786 4.64365 9.06115 4.22222 8.00028 4.22222C6.93942 4.22222 5.922 4.64365 5.17185 5.3938C5.15269 5.41296 5.13375 5.43229 5.11502 5.4518L2.88385 4.02844ZM0.667107 6.70514C0.412848 7.13254 0.213327 7.53417 0.0697266 7.88056C-0.0219401 8.1 -0.0219401 8.34444 0.0697266 8.56389C0.480838 9.55556 1.35028 11 2.65028 12.2056C3.95862 13.4222 5.75584 14.4444 8.00028 14.4444C9.29937 14.4444 10.4486 14.102 11.44 13.5776L9.08184 12.0732C8.73285 12.1713 8.36919 12.2222 8.00028 12.2222C6.93942 12.2222 5.922 11.8008 5.17185 11.0506C4.57485 10.4536 4.18605 9.68736 4.05219 8.86462L0.667107 6.70514ZM6.48871 10.419C6.53796 10.4528 6.58831 10.4849 6.63967 10.5153L6.48871 10.419ZM10.5697 8.93154C10.6928 8.48806 10.7028 8.00697 10.5753 7.53056C10.2669 6.37778 9.2475 5.60278 8.11417 5.55556C7.95306 5.55 7.85862 5.725 7.90862 5.88056C7.96695 6.05833 8.00028 6.24722 8.00028 6.44444C8.00028 6.70991 7.94185 6.96195 7.83716 7.18836L10.5697 8.93154Z"
              fill="currentColor"/>
    </symbol>

    <!-- checkbox-tick-svg -->
    <symbol id="checkbox-tick-svg" width="9" height="6" viewBox="0 0 9 6" fill="none" stroke="currentColor"
            xmlns="http://www.w3.org/2000/svg">
        <path d="M7.16683 1L3.50016 5L1.8335 3.18182" stroke="currentColor" stroke-width="2" stroke-linecap="round"
              stroke-linejoin="round"/>
    </symbol>

    <!-- stack-svg -->
    <symbol id="stack-svg" width="16" height="16" viewBox="0 0 16 16" fill="none" xmlns="http://www.w3.org/2000/svg">
        <g clip-path="url(#clip0_1001_2902)">
            <path d="M6.85714 1.14042V3.42613C6.85714 4.05827 7.36786 4.56899 8 4.56899H10.2857C10.9179 4.56899 11.4286 4.05827 11.4286 3.42613V1.14042C11.4286 0.508273 10.9179 -0.00244141 10.2857 -0.00244141H8C7.36786 -0.00244141 6.85714 0.508273 6.85714 1.14042ZM2.95357 6.24756C2.40714 6.56184 2.22143 7.26184 2.53571 7.80827L3.67857 9.78685C3.99286 10.3333 4.69286 10.519 5.23929 10.2047L7.21786 9.06184C7.76429 8.74756 7.95 8.04756 7.63571 7.50113L6.49286 5.52256C6.17857 4.97613 5.47857 4.79042 4.93214 5.1047L2.95357 6.24756ZM10.2857 5.71184C9.65357 5.71184 9.14286 6.22256 9.14286 6.8547V9.14042C9.14286 9.77256 9.65357 10.2833 10.2857 10.2833H12.5714C13.2036 10.2833 13.7143 9.77256 13.7143 9.14042V6.8547C13.7143 6.22256 13.2036 5.71184 12.5714 5.71184H10.2857ZM12.5714 11.4261C11.9393 11.4261 11.4286 11.9368 11.4286 12.569V14.8547C11.4286 15.4868 11.9393 15.9976 12.5714 15.9976H14.8571C15.4893 15.9976 16 15.4868 16 14.8547V12.569C16 11.9368 15.4893 11.4261 14.8571 11.4261H12.5714ZM5.71429 12.569V14.8547C5.71429 15.4868 6.225 15.9976 6.85714 15.9976H9.14286C9.775 15.9976 10.2857 15.4868 10.2857 14.8547V12.569C10.2857 11.9368 9.775 11.4261 9.14286 11.4261H6.85714C6.225 11.4261 5.71429 11.9368 5.71429 12.569ZM1.14286 11.4261C0.510714 11.4261 0 11.9368 0 12.569V14.8547C0 15.4868 0.510714 15.9976 1.14286 15.9976H3.42857C4.06071 15.9976 4.57143 15.4868 4.57143 14.8547V12.569C4.57143 11.9368 4.06071 11.4261 3.42857 11.4261H1.14286Z"
                  fill="#5C89CE"/>
        </g>
        <defs>
            <clipPath id="clip0_1001_2902">
                <rect width="16" height="16" fill="white"/>
            </clipPath>
        </defs>
    </symbol>

    <!-- salary-svg -->
    <symbol id="salary-svg" width="16" height="16" viewBox="0 0 16 16" fill="none" xmlns="http://www.w3.org/2000/svg">
        <g clip-path="url(#clip0_1001_2904)">
            <path d="M16 2.5C16 3.0625 15.5531 3.58125 14.8 4C13.8906 4.50313 12.5344 4.85938 10.9781 4.96562C10.8625 4.90937 10.7469 4.85625 10.625 4.80937C9.39375 4.29375 7.75625 4 6 4C5.74062 4 5.4875 4.00625 5.23438 4.01875L5.2 4C4.44687 3.58125 4 3.0625 4 2.5C4 1.11875 6.6875 0 10 0C13.3125 0 16 1.11875 16 2.5ZM5.02187 5.03438C5.34062 5.0125 5.66875 5 6 5C7.94375 5 9.66875 5.38437 10.7656 5.98125C11.5406 6.40312 12 6.92812 12 7.5C12 7.625 11.9781 7.74687 11.9344 7.86562C11.7906 8.27812 11.4031 8.65625 10.8406 8.975C10.8375 8.97813 10.8313 8.97812 10.8281 8.98125C10.8188 8.9875 10.8094 8.99062 10.8 8.99687C9.70625 9.60312 7.9625 9.99687 6 9.99687C4.1375 9.99687 2.47187 9.64375 1.36875 9.0875C1.30937 9.05937 1.25312 9.02812 1.19687 8.99687C0.446875 8.58125 0 8.0625 0 7.5C0 6.4125 1.66875 5.48438 4 5.14375C4.32812 5.09688 4.66875 5.05938 5.02187 5.03438ZM13 7.5C13 6.81563 12.6687 6.25313 12.2469 5.83125C13.1312 5.69375 13.9406 5.475 14.6281 5.19063C15.1375 4.97813 15.6125 4.71563 16 4.39375V5.5C16 6.10313 15.4844 6.65937 14.6313 7.09062C14.175 7.32187 13.6187 7.51875 12.9937 7.66875C12.9969 7.6125 13 7.55938 13 7.50313V7.5ZM12 10.5C12 11.0625 11.5531 11.5813 10.8 12C10.7438 12.0312 10.6875 12.0594 10.6281 12.0906C9.52812 12.6469 7.8625 13 6 13C4.0375 13 2.29375 12.6062 1.2 12C0.446875 11.5813 0 11.0625 0 10.5V9.39375C0.390625 9.71562 0.8625 9.97813 1.37188 10.1906C2.60625 10.7063 4.24375 11 6 11C7.75625 11 9.39375 10.7063 10.6281 10.1906C10.8719 10.0906 11.1062 9.975 11.3281 9.85C11.5188 9.74375 11.6969 9.625 11.8656 9.5C11.9125 9.46562 11.9563 9.42813 12 9.39375V9.5V9.67813V10.5ZM13 10.5V9.5V8.69063C13.5938 8.55937 14.1406 8.39375 14.6281 8.19063C15.1375 7.97813 15.6125 7.71563 16 7.39375V8.5C16 8.82812 15.8438 9.15625 15.5344 9.46562C15.025 9.975 14.1281 10.3937 12.9937 10.6656C12.9969 10.6125 13 10.5562 13 10.5ZM6 14C7.75625 14 9.39375 13.7063 10.6281 13.1906C11.1375 12.9781 11.6125 12.7156 12 12.3938V13.5C12 14.8813 9.3125 16 6 16C2.6875 16 0 14.8813 0 13.5V12.3938C0.390625 12.7156 0.8625 12.9781 1.37188 13.1906C2.60625 13.7063 4.24375 14 6 14Z"
                  fill="#5C89CE"/>
        </g>
        <defs>
            <clipPath id="clip0_1001_2904">
                <rect width="16" height="16" fill="white"/>
            </clipPath>
        </defs>
    </symbol>

    <!-- more-filters-svg -->
    <symbol id="more-filters-svg" width="16" height="16" viewBox="0 0 16 16" fill="none"
            xmlns="http://www.w3.org/2000/svg">
        <path d="M15.2351 0H9.11576C8.69557 0 8.10709 0.243753 7.81031 0.54054L0.22337 8.12748C0.0803126 8.2712 0 8.46574 0 8.66853C0 8.87132 0.0803126 9.06585 0.22337 9.20958L6.79042 15.7766C6.93415 15.9197 7.12868 16 7.33147 16C7.53426 16 7.72879 15.9197 7.87252 15.7766L15.4595 8.18969C15.7573 7.89188 16 7.30443 16 6.88424V0.764915C15.9992 0.562295 15.9183 0.368204 15.7751 0.224929C15.6318 0.0816534 15.4377 0.000805656 15.2351 0V0ZM11.4105 6.11932C11.2095 6.11925 11.0106 6.0796 10.8249 6.00264C10.6393 5.92567 10.4706 5.81289 10.3285 5.67073C10.1865 5.52858 10.0738 5.35984 9.99697 5.17415C9.92013 4.98845 9.88061 4.78944 9.88068 4.58847C9.88074 4.3875 9.92039 4.18852 9.99736 4.00287C10.0743 3.81723 10.1871 3.64856 10.3293 3.50651C10.4714 3.36445 10.6402 3.25178 10.8259 3.17494C11.0115 3.09809 11.2106 3.05857 11.4115 3.05864C11.8174 3.05878 12.2066 3.22014 12.4935 3.50723C12.7804 3.79432 12.9415 4.18362 12.9414 4.58949C12.9412 4.99536 12.7799 5.38456 12.4928 5.67145C12.2057 5.95835 11.8164 6.11946 11.4105 6.11932Z"
              fill="#5C89CE"/>
    </symbol>

    <!-- underworking-svg -->
    <symbol id="underworking-svg" width="16" height="16" viewBox="0 0 16 16" fill="none"
            xmlns="http://www.w3.org/2000/svg">
        <path fill-rule="evenodd" clip-rule="evenodd"
              d="M10.25 1.5H5.75C5.6125 1.5 5.5 1.6125 5.5 1.75V3H10.5V1.75C10.5 1.6125 10.3875 1.5 10.25 1.5ZM4 3V1.75C4 0.784375 4.78438 0 5.75 0H10.25C11.2156 0 12 0.784375 12 1.75V3H14C15.1031 3 16 3.89687 16 5V6.25716C15.0491 5.47182 13.8296 5 12.5 5C10.3627 5 8.51007 6.21916 7.59971 8H6H0V5C0 3.89687 0.896875 3 2 3H4ZM7.02242 11H7C6.44688 11 6 10.5531 6 10V9H0V13C0 14.1031 0.896875 15 2 15H9.33692C8.05152 14.0948 7.17137 12.6528 7.02242 11Z"
              fill="#5C89CE"/>
        <path d="M12.4965 7C10.5645 7 9 8.568 9 10.5C9 12.432 10.5645 14 12.4965 14C14.432 14 16 12.432 16 10.5C16 8.568 14.432 7 12.4965 7ZM13.9 11.9C13.8676 11.9324 13.8292 11.9582 13.7868 11.9758C13.7445 11.9933 13.6991 12.0024 13.6532 12.0024C13.6074 12.0024 13.562 11.9933 13.5197 11.9758C13.4773 11.9582 13.4389 11.9324 13.4065 11.9L12.255 10.7485C12.2219 10.7161 12.1956 10.6774 12.1776 10.6348C12.1596 10.5921 12.1502 10.5463 12.15 10.5V9.1C12.15 8.9075 12.3075 8.75 12.5 8.75C12.6925 8.75 12.85 8.9075 12.85 9.1V10.3565L13.9 11.4065C14.0365 11.543 14.0365 11.7635 13.9 11.9Z"
              fill="#5C89CE"/>
    </symbol>

    <!-- graduation-svg -->
    <symbol id="graduation-svg" width="16" height="16" viewBox="0 0 16 16" fill="none"
            xmlns="http://www.w3.org/2000/svg">
        <path d="M8.00019 0.997559C7.7977 0.997559 7.5977 1.0413 7.40771 1.12566L0.395375 4.29066C0.157881 4.40002 0.000384797 4.68121 0.000384797 4.99677C0.000384797 5.31234 0.157881 5.59353 0.395375 5.70289L1.84284 6.35588C1.43285 7.16198 1.20036 8.11491 1.20036 9.11784V9.9958C1.20036 10.8831 0.930362 11.7986 0.642869 12.5203C0.480373 12.9265 0.295378 13.3264 0.0803829 13.6951C0.000384798 13.8294 -0.0221147 14.0044 0.0228843 14.1637C0.0678832 14.3231 0.172881 14.4418 0.302878 14.4824L1.90284 14.9823C2.00784 15.0167 2.12033 14.9917 2.21283 14.9198C2.30533 14.848 2.37033 14.7292 2.39033 14.5949C2.60532 13.2577 2.49782 12.0579 2.33783 11.1987C2.25783 10.755 2.15033 10.302 2.00034 9.88644V9.11784C2.00034 8.17428 2.25533 7.28383 2.69782 6.57147C3.02031 6.08719 3.4378 5.69664 3.92779 5.45606L7.8527 3.52831C8.05769 3.42833 8.29018 3.55331 8.37018 3.80951C8.45018 4.06571 8.35018 4.35628 8.14519 4.45626L4.22028 6.384C3.91029 6.5371 3.6378 6.77143 3.4153 7.05887L7.40521 8.85852C7.5952 8.94288 7.7952 8.98662 7.99769 8.98662C8.20019 8.98662 8.40018 8.94288 8.59018 8.85852L15.605 5.70289C15.8425 5.59666 16 5.31234 16 4.99677C16 4.68121 15.8425 4.40002 15.605 4.29066L8.59268 1.12566C8.40268 1.0413 8.20269 0.997559 8.00019 0.997559ZM3.20031 12.7453C3.20031 13.8482 5.35026 14.9948 8.00019 14.9948C10.6501 14.9948 12.8001 13.8482 12.8001 12.7453L12.4176 8.2024L8.86267 9.80833C8.58518 9.93331 8.29269 9.9958 8.00019 9.9958C7.7077 9.9958 7.41271 9.93331 7.13771 9.80833L3.5828 8.2024L3.20031 12.7453Z"
              fill="#5C89CE"/>
    </symbol>

    <!-- calendar-svg -->
    <symbol id="calendar-svg" width="16" height="16" viewBox="0 0 16 16" fill="none" xmlns="http://www.w3.org/2000/svg">
        <path d="M5.00098 0C5.5541 0 6.00098 0.446875 6.00098 1V2H10.001V1C10.001 0.446875 10.4479 0 11.001 0C11.5541 0 12.001 0.446875 12.001 1V2H13.501C14.3291 2 15.001 2.67188 15.001 3.5V5H1.00098V3.5C1.00098 2.67188 1.67285 2 2.50098 2H4.00098V1C4.00098 0.446875 4.44785 0 5.00098 0ZM1.00098 6H15.001V14.5C15.001 15.3281 14.3291 16 13.501 16H2.50098C1.67285 16 1.00098 15.3281 1.00098 14.5V6ZM3.00098 8.5V9.5C3.00098 9.775 3.22598 10 3.50098 10H4.50098C4.77598 10 5.00098 9.775 5.00098 9.5V8.5C5.00098 8.225 4.77598 8 4.50098 8H3.50098C3.22598 8 3.00098 8.225 3.00098 8.5ZM7.00098 8.5V9.5C7.00098 9.775 7.22598 10 7.50098 10H8.50098C8.77598 10 9.00098 9.775 9.00098 9.5V8.5C9.00098 8.225 8.77598 8 8.50098 8H7.50098C7.22598 8 7.00098 8.225 7.00098 8.5ZM11.501 8C11.226 8 11.001 8.225 11.001 8.5V9.5C11.001 9.775 11.226 10 11.501 10H12.501C12.776 10 13.001 9.775 13.001 9.5V8.5C13.001 8.225 12.776 8 12.501 8H11.501ZM3.00098 12.5V13.5C3.00098 13.775 3.22598 14 3.50098 14H4.50098C4.77598 14 5.00098 13.775 5.00098 13.5V12.5C5.00098 12.225 4.77598 12 4.50098 12H3.50098C3.22598 12 3.00098 12.225 3.00098 12.5ZM7.50098 12C7.22598 12 7.00098 12.225 7.00098 12.5V13.5C7.00098 13.775 7.22598 14 7.50098 14H8.50098C8.77598 14 9.00098 13.775 9.00098 13.5V12.5C9.00098 12.225 8.77598 12 8.50098 12H7.50098ZM11.001 12.5V13.5C11.001 13.775 11.226 14 11.501 14H12.501C12.776 14 13.001 13.775 13.001 13.5V12.5C13.001 12.225 12.776 12 12.501 12H11.501C11.226 12 11.001 12.225 11.001 12.5Z"
              fill="#5C89CE"/>
    </symbol>

    <!-- time-svg -->
    <symbol id="time-svg" width="16" height="16" viewBox="0 0 16 16" fill="none" xmlns="http://www.w3.org/2000/svg">
        <path d="M7.992 0C3.576 0 0 3.584 0 8C0 12.416 3.576 16 7.992 16C12.416 16 16 12.416 16 8C16 3.584 12.416 0 7.992 0ZM11.2 11.2C11.126 11.2742 11.0381 11.333 10.9413 11.3731C10.8445 11.4133 10.7408 11.434 10.636 11.434C10.5312 11.434 10.4275 11.4133 10.3307 11.3731C10.2339 11.333 10.146 11.2742 10.072 11.2L7.44 8.568C7.36441 8.49391 7.30427 8.40555 7.26308 8.30805C7.22188 8.21055 7.20044 8.10585 7.2 8V4.8C7.2 4.36 7.56 4 8 4C8.44 4 8.8 4.36 8.8 4.8V7.672L11.2 10.072C11.512 10.384 11.512 10.888 11.2 11.2Z"
              fill="#5C89CE"/>
    </symbol>

    <!-- cross-svg -->
    <symbol id="cross-svg" width="12" height="12" viewBox="0 0 12 12" fill="currentColor"
            xmlns="http://www.w3.org/2000/svg">
        <path d="M9.28145 3.28145C9.57441 2.98848 9.57441 2.5127 9.28145 2.21973C8.98848 1.92676 8.5127 1.92676 8.21973 2.21973L5.75176 4.69004L3.28145 2.22207C2.98848 1.9291 2.5127 1.9291 2.21973 2.22207C1.92676 2.51504 1.92676 2.99082 2.21973 3.28379L4.69004 5.75176L2.22207 8.22207C1.9291 8.51504 1.9291 8.99082 2.22207 9.28379C2.51504 9.57676 2.99082 9.57676 3.28379 9.28379L5.75176 6.81348L8.22207 9.28145C8.51504 9.57441 8.99082 9.57441 9.28379 9.28145C9.57676 8.98848 9.57676 8.5127 9.28379 8.21973L6.81348 5.75176L9.28145 3.28145Z"
              fill="currentColor"/>
    </symbol>

    <!--  checkbox-mark-svg   -->
    <symbol id="checkbox-mark-svg" fill="none">
        <path stroke="currentColor" stroke-linecap="round" stroke-linejoin="round" stroke-width="2"
              d="M7.167 1 3.5 5 1.833 3.182"/>
    </symbol>

    <!--  eye-solid-svg   -->
    <symbol fill="none" xmlns="http://www.w3.org/2000/svg" viewBox="0 0 20 20" id="eye-solid-svg">
        <g clip-path="url(#clip0_10138_1364)">
            <path d="M9.99913 2.5C7.19358 2.5 4.94705 3.77778 3.31163 5.29861C1.68663 6.80556 0.599826 8.61111 0.0859375 9.8507C-0.0286458 10.125 -0.0286458 10.4306 0.0859375 10.7049C0.599826 11.9444 1.68663 13.75 3.31163 15.2569C4.94705 16.7778 7.19358 18.0556 9.99913 18.0556C12.8047 18.0556 15.0512 16.7778 16.6866 15.2569C18.3116 13.7465 19.3984 11.9444 19.9158 10.7049C20.0304 10.4306 20.0304 10.125 19.9158 9.8507C19.3984 8.61111 18.3116 6.80556 16.6866 5.29861C15.0512 3.77778 12.8047 2.5 9.99913 2.5ZM4.99913 10.2778C4.99913 8.9517 5.52592 7.67993 6.4636 6.74224C7.40128 5.80456 8.67305 5.27778 9.99913 5.27778C11.3252 5.27778 12.597 5.80456 13.5347 6.74224C14.4723 7.67993 14.9991 8.9517 14.9991 10.2778C14.9991 11.6039 14.4723 12.8756 13.5347 13.8133C12.597 14.751 11.3252 15.2778 9.99913 15.2778C8.67305 15.2778 7.40128 14.751 6.4636 13.8133C5.52592 12.8756 4.99913 11.6039 4.99913 10.2778ZM9.99913 8.05556C9.99913 9.28125 9.0026 10.2778 7.77691 10.2778C7.53038 10.2778 7.29427 10.2361 7.07205 10.1632C6.88108 10.1007 6.65885 10.2188 6.6658 10.4201C6.67622 10.6597 6.71094 10.8993 6.77691 11.1389C7.2526 12.9167 9.08247 13.9722 10.8602 13.4965C12.638 13.0208 13.6936 11.191 13.2179 9.4132C12.8325 7.97222 11.5582 7.00347 10.1415 6.94445C9.94011 6.9375 9.82205 7.15625 9.88455 7.3507C9.95747 7.57292 9.99913 7.80903 9.99913 8.05556Z" fill="currentColor"></path>
        </g>
        <defs>
            <clipPath id="clip0_10138_1364">
                <rect width="20" height="20" fill="white"></rect>
            </clipPath>
        </defs>
    </symbol>

</svg>
